<svg width="1313" height="1313" viewBox="0 0 1313 1313" fill="none" xmlns="http://www.w3.org/2000/svg">
<g clip-path="url(#clip0_177_2)">
<path d="M1553.72 -242.541H-242.541V1553.72H1553.72V-242.541Z" fill="#FDD835"/>
<path d="M1555.54 930.04L804.21 180.536L705.735 366.544L556.199 217.008L448.606 242.539L558.023 351.955V620.026L404.839 466.843L348.307 523.375L461.371 636.439V780.504L320.953 824.271L415.781 917.275L320.953 1097.81L778.68 1555.54H1555.54V930.04Z" fill="url(#paint0_linear_177_2)"/>
<path d="M855.271 705.737L795.092 647.381L909.979 532.494V466.844H993.865V568.966L855.271 705.737Z" fill="#FFFDE7"/>
<path d="M993.865 1097.81H909.979V1030.34L795.092 917.276L855.271 857.097L993.865 995.692V1097.81Z" fill="#FFFDE7"/>
<path d="M993.866 740.386H846.154V824.272H993.866V740.386Z" fill="#FFFDE7"/>
<path d="M404.839 1097.81H320.953V995.692L459.548 857.097L519.727 917.276L404.839 1030.34V1097.81Z" fill="#FFFDE7"/>
<path d="M459.548 705.737L320.953 568.966V466.844H404.839V532.494L519.727 647.381L459.548 705.737Z" fill="#FFFDE7"/>
<path d="M468.666 740.386H320.953V824.272H468.666V740.386Z" fill="#FFFDE7"/>
<path d="M846.155 466.844C846.155 490.55 842.508 514.257 833.389 534.317C806.035 605.438 736.738 656.499 656.499 656.499C601.791 656.499 552.553 632.792 517.905 594.496C486.903 561.671 468.667 516.081 468.667 466.844C468.667 362.898 552.553 277.188 658.323 277.188C764.092 277.188 846.155 362.898 846.155 466.844Z" fill="#37383A"/>
<path d="M833.388 534.318C806.034 605.439 736.737 656.5 656.498 656.5C601.79 656.5 552.552 632.793 517.904 594.497C559.847 552.554 609.084 523.376 656.498 508.787C722.148 490.551 785.975 496.022 833.388 534.318Z" fill="#222326"/>
<path d="M809.681 1021.22C778.679 1052.22 751.325 1074.11 744.031 1079.58L656.498 1137.93L568.964 1079.58C563.493 1074.11 534.316 1054.05 503.314 1021.22C594.495 970.161 656.498 760.446 656.498 647.382C658.321 760.446 718.5 970.161 809.681 1021.22Z" fill="#222326"/>
<path d="M909.98 824.271C909.98 899.039 862.566 968.336 809.681 1021.22C718.5 970.16 656.498 871.685 656.498 760.444C656.498 873.508 594.495 970.16 503.314 1021.22C450.43 966.512 403.016 899.039 403.016 824.271C403.016 603.614 528.845 508.786 654.674 508.786C784.15 508.786 909.98 603.614 909.98 824.271Z" fill="#37383A"/>
<path d="M866.213 242.539C820.622 260.775 787.797 306.365 787.797 359.25H703.911C703.911 284.482 744.031 217.008 804.21 180.536L866.213 242.539Z" fill="#37383A"/>
<path d="M448.606 242.539C494.196 260.775 527.021 306.365 527.021 359.25H610.907C610.907 284.482 570.788 217.008 510.609 180.536L448.606 242.539Z" fill="#37383A"/>
</g>
<defs>
<linearGradient id="paint0_linear_177_2" x1="1461.08" y1="1522.83" x2="366.673" y2="451.13" gradientUnits="userSpaceOnUse">
<stop stop-color="#F9A825" stop-opacity="0"/>
<stop offset="1" stop-color="#F9A825"/>
</linearGradient>
<clipPath id="clip0_177_2">
<rect width="1313" height="1313" fill="white"/>
</clipPath>
</defs>
</svg>
